<svg width="1058" height="663" viewBox="0 0 1058 663" fill="none" xmlns="http://www.w3.org/2000/svg">
<rect x="22" width="1015" height="663" rx="100" fill="#F86969" fill-opacity="0.92"/>
<g filter="url(#filter0_d)">
<path d="M295.113 234.6C288.446 232.467 281.379 230.6 273.913 229C266.446 227.133 258.179 225.667 249.113 224.6C240.313 223.267 230.979 222.6 221.113 222.6C205.113 222.6 191.513 226.067 180.313 233C169.113 239.933 159.913 248.867 152.713 259.8C145.779 270.467 140.713 282.467 137.513 295.8C134.313 309.133 132.713 322.333 132.713 335.4C132.713 351.933 134.979 367 139.513 380.6C144.313 393.933 150.713 405.4 158.713 415C166.979 424.333 176.446 431.533 187.113 436.6C198.046 441.667 209.513 444.2 221.513 444.2C232.713 444.2 242.979 443.667 252.313 442.6C261.646 441.267 269.646 439.933 276.312 438.6C284.046 437 290.979 435.133 297.113 433L303.913 461.4C296.713 463.8 288.713 465.933 279.912 467.8C272.446 469.4 263.779 470.867 253.913 472.2C244.046 473.533 233.246 474.2 221.513 474.2C200.446 474.2 181.913 470.733 165.913 463.8C150.179 456.867 136.979 447.267 126.313 435C115.913 422.467 108.046 407.8 102.713 391C97.3792 373.933 94.7125 355.267 94.7125 335C94.7125 311.8 97.9125 291.4 104.313 273.8C110.713 255.933 119.513 241 130.713 229C141.913 217 155.246 207.933 170.713 201.8C186.179 195.667 203.113 192.6 221.513 192.6C232.713 192.6 243.113 193.267 252.713 194.6C262.579 195.667 271.513 197.133 279.513 199C287.779 200.867 295.379 202.867 302.313 205L295.113 234.6ZM352.481 196.2H425.281C454.081 196.2 474.881 201.533 487.681 212.2C500.748 222.867 507.281 239.133 507.281 261C507.281 271.133 505.815 279.933 502.881 287.4C500.215 294.867 497.148 301.133 493.681 306.2C489.681 312.067 485.281 317.133 480.481 321.4C486.881 323.8 492.881 326.867 498.481 330.6C504.081 334.333 509.015 338.867 513.281 344.2C517.548 349.533 520.881 355.933 523.281 363.4C525.948 370.6 527.281 379.133 527.281 389C527.281 399.933 525.815 410.333 522.881 420.2C519.948 429.8 515.015 438.2 508.081 445.4C501.148 452.6 491.948 458.333 480.481 462.6C469.015 466.867 454.748 469 437.681 469H352.481V196.2ZM386.081 314.6H452.881C456.615 311.667 459.948 307.8 462.881 303C465.548 299 467.948 294.067 470.081 288.2C472.215 282.067 473.281 274.733 473.281 266.2C473.281 250.467 469.148 239.933 460.881 234.6C452.881 229 441.548 226.2 426.881 226.2H386.081V314.6ZM386.081 439H440.481C458.081 439 471.281 434.467 480.081 425.4C488.881 416.333 493.281 404.2 493.281 389C493.281 382.333 492.348 376.2 490.481 370.6C488.881 365 485.948 360.2 481.681 356.2C477.415 351.933 471.681 348.6 464.481 346.2C457.281 343.8 448.348 342.6 437.681 342.6H386.081V439ZM722.159 233.8C715.759 232.2 709.093 230.733 702.159 229.4C696.026 228.067 688.959 227 680.959 226.2C673.226 225.133 665.093 224.6 656.559 224.6C636.826 224.6 622.693 227.667 614.159 233.8C605.626 239.667 601.359 248.867 601.359 261.4C601.626 271.267 605.226 279.667 612.159 286.6C619.093 293.267 627.759 299.533 638.159 305.4C648.559 311 659.893 316.6 672.159 322.2C684.693 327.533 696.159 333.8 706.559 341C716.959 347.933 725.626 356.2 732.559 365.8C739.759 375.133 743.359 386.6 743.359 400.2C743.359 415.933 739.893 428.6 732.959 438.2C726.293 447.8 717.759 455.267 707.359 460.6C696.959 465.933 685.493 469.533 672.959 471.4C660.693 473.267 648.959 474.2 637.759 474.2C627.093 474.2 617.359 473.533 608.559 472.2C599.759 470.867 592.159 469.4 585.759 467.8C578.293 465.933 571.493 463.8 565.359 461.4L573.359 429C579.493 431.667 586.026 433.933 592.959 435.8C599.093 437.4 605.893 438.867 613.359 440.2C621.093 441.533 629.226 442.2 637.759 442.2C648.159 442.2 657.626 441.533 666.159 440.2C674.959 438.867 682.559 436.733 688.959 433.8C695.359 430.867 700.293 427 703.759 422.2C707.493 417.4 709.359 411.533 709.359 404.6C709.093 394.2 705.626 385.8 698.959 379.4C692.559 372.733 683.893 366.467 672.959 360.6C662.293 354.467 650.693 348.6 638.159 343C625.893 337.4 614.559 331 604.159 323.8C593.759 316.6 584.959 308.067 577.759 298.2C570.826 288.333 567.359 276.067 567.359 261.4C567.359 252.867 568.826 244.467 571.759 236.2C574.693 227.933 579.626 220.6 586.559 214.2C593.759 207.8 602.959 202.6 614.159 198.6C625.626 194.6 639.759 192.6 656.559 192.6C666.159 192.6 675.226 193.133 683.759 194.2C692.559 195 700.159 195.933 706.559 197C714.026 198.333 721.093 199.8 727.759 201.4L722.159 233.8ZM793.106 196.2H960.306V227H826.706V314.2H950.706V344.2H826.706V438.2H964.306V469H793.106V196.2Z" fill="white"/>
</g>
<defs>
<filter id="filter0_d" x="94.7129" y="192.6" width="883.594" height="295.6" filterUnits="userSpaceOnUse" color-interpolation-filters="sRGB">
<feFlood flood-opacity="0" result="BackgroundImageFix"/>
<feColorMatrix in="SourceAlpha" type="matrix" values="0 0 0 0 0 0 0 0 0 0 0 0 0 0 0 0 0 0 127 0"/>
<feOffset dx="10" dy="10"/>
<feGaussianBlur stdDeviation="2"/>
<feColorMatrix type="matrix" values="0 0 0 0 0.768627 0 0 0 0 0.768627 0 0 0 0 0.768627 0 0 0 1 0"/>
<feBlend mode="normal" in2="BackgroundImageFix" result="effect1_dropShadow"/>
<feBlend mode="normal" in="SourceGraphic" in2="effect1_dropShadow" result="shape"/>
</filter>
</defs>
</svg>
