<svg width="900" height="900" viewBox="0 0 900 900" fill="none" xmlns="http://www.w3.org/2000/svg">
<circle cx="450" cy="450" r="450" fill="#4DB5AC"/>
<g filter="url(#filter0_d)">
<path d="M447.478 697.4C424.011 697.4 401.878 694.733 381.078 689.4C360.811 684.6 342.945 676.333 327.478 664.6C312.011 652.867 299.745 637.667 290.678 619C281.611 599.8 277.078 576.333 277.078 548.6C277.078 528.867 280.545 511.267 287.478 495.8C294.411 479.8 302.678 465.933 312.278 454.2C322.411 441.933 333.345 431.533 345.078 423C356.811 413.933 367.478 406.2 377.078 399.8C351.478 385.933 330.945 369.4 315.478 350.2C300.545 330.467 293.078 306.733 293.078 279C293.078 254.467 297.878 233.133 307.478 215C317.078 196.333 329.345 181.133 344.278 169.4C359.745 157.667 376.811 148.867 395.478 143C414.145 137.133 432.811 134.2 451.478 134.2C474.945 134.2 496.278 137.667 515.478 144.6C535.211 151 552.011 160.6 565.878 173.4C579.745 185.667 590.411 200.867 597.878 219C605.878 236.6 609.878 256.6 609.878 279C609.878 292.867 607.478 306.2 602.678 319C598.411 331.267 592.545 343 585.078 354.2C578.145 365.4 569.878 375.8 560.278 385.4C551.211 395 541.878 403.8 532.278 411.8C544.011 418.2 555.478 425.133 566.678 432.6C577.878 440.067 587.745 449.133 596.278 459.8C605.345 469.933 612.545 482.467 617.878 497.4C623.211 511.8 625.878 528.867 625.878 548.6C625.878 576.867 620.811 600.6 610.678 619.8C601.078 638.467 588.011 653.667 571.478 665.4C554.945 677.133 535.745 685.4 513.878 690.2C492.545 695 470.411 697.4 447.478 697.4ZM480.278 386.2C487.211 379.8 494.411 373.133 501.878 366.2C509.345 359.267 516.011 351.533 521.878 343C527.745 334.467 532.545 325.133 536.278 315C540.011 304.333 541.878 292.333 541.878 279C541.878 267.8 540.278 256.867 537.078 246.2C534.411 235.533 529.611 226.2 522.678 218.2C515.745 209.667 506.411 203 494.678 198.2C482.945 192.867 468.545 190.2 451.478 190.2C436.545 190.2 423.478 192.867 412.278 198.2C401.078 203.533 391.478 210.467 383.478 219C376.011 227 370.411 236.333 366.678 247C362.945 257.667 361.078 268.333 361.078 279C361.078 293.4 364.011 305.933 369.878 316.6C376.278 326.733 384.811 336.067 395.478 344.6C406.678 352.6 419.478 360.067 433.878 367C448.278 373.4 463.745 379.8 480.278 386.2ZM345.078 548.6C345.078 575.8 353.345 598.2 369.878 615.8C386.945 632.867 413.078 641.4 448.278 641.4C483.478 641.4 510.411 632.867 529.078 615.8C548.278 598.733 557.878 576.333 557.878 548.6C557.878 533.133 554.678 519.8 548.278 508.6C542.411 497.4 533.878 487.533 522.678 479C511.478 469.933 497.611 461.4 481.078 453.4C465.078 445.4 446.945 437.133 426.678 428.6C416.545 435 406.678 441.933 397.078 449.4C388.011 456.867 379.478 465.4 371.478 475C363.478 484.6 357.078 495.533 352.278 507.8C347.478 519.533 345.078 533.133 345.078 548.6Z" fill="white"/>
</g>
<defs>
<filter id="filter0_d" x="277.078" y="134.199" width="362.8" height="577.2" filterUnits="userSpaceOnUse" color-interpolation-filters="sRGB">
<feFlood flood-opacity="0" result="BackgroundImageFix"/>
<feColorMatrix in="SourceAlpha" type="matrix" values="0 0 0 0 0 0 0 0 0 0 0 0 0 0 0 0 0 0 127 0"/>
<feOffset dx="10" dy="10"/>
<feGaussianBlur stdDeviation="2"/>
<feColorMatrix type="matrix" values="0 0 0 0 0.768627 0 0 0 0 0.768627 0 0 0 0 0.768627 0 0 0 1 0"/>
<feBlend mode="normal" in2="BackgroundImageFix" result="effect1_dropShadow"/>
<feBlend mode="normal" in="SourceGraphic" in2="effect1_dropShadow" result="shape"/>
</filter>
</defs>
</svg>
