<svg width="1058" height="663" viewBox="0 0 1058 663" fill="none" xmlns="http://www.w3.org/2000/svg">
<rect x="22" width="1015" height="663" rx="100" fill="#F86969" fill-opacity="0.92"/>
<g filter="url(#filter0_d)">
<path d="M172.598 196.2H206.198V469H172.598V196.2ZM462.105 234.6C455.438 232.467 448.371 230.6 440.905 229C433.438 227.133 425.171 225.667 416.105 224.6C407.305 223.267 397.971 222.6 388.105 222.6C372.105 222.6 358.505 226.067 347.305 233C336.105 239.933 326.905 248.867 319.705 259.8C312.771 270.467 307.705 282.467 304.505 295.8C301.305 309.133 299.705 322.333 299.705 335.4C299.705 351.933 301.971 367 306.505 380.6C311.305 393.933 317.705 405.4 325.705 415C333.971 424.333 343.438 431.533 354.105 436.6C365.038 441.667 376.505 444.2 388.505 444.2C399.705 444.2 409.971 443.667 419.305 442.6C428.638 441.267 436.638 439.933 443.305 438.6C451.038 437 457.971 435.133 464.105 433L470.905 461.4C463.705 463.8 455.705 465.933 446.905 467.8C439.438 469.4 430.771 470.867 420.905 472.2C411.038 473.533 400.238 474.2 388.505 474.2C367.438 474.2 348.905 470.733 332.905 463.8C317.171 456.867 303.971 447.267 293.305 435C282.905 422.467 275.038 407.8 269.705 391C264.371 373.933 261.705 355.267 261.705 335C261.705 311.8 264.905 291.4 271.305 273.8C277.705 255.933 286.505 241 297.705 229C308.905 217 322.238 207.933 337.705 201.8C353.171 195.667 370.105 192.6 388.505 192.6C399.705 192.6 410.105 193.267 419.705 194.6C429.571 195.667 438.505 197.133 446.505 199C454.771 200.867 462.371 202.867 469.305 205L462.105 234.6ZM659.073 233.8C652.673 232.2 646.007 230.733 639.073 229.4C632.94 228.067 625.873 227 617.873 226.2C610.14 225.133 602.007 224.6 593.473 224.6C573.74 224.6 559.607 227.667 551.073 233.8C542.54 239.667 538.273 248.867 538.273 261.4C538.54 271.267 542.14 279.667 549.073 286.6C556.007 293.267 564.673 299.533 575.073 305.4C585.473 311 596.807 316.6 609.073 322.2C621.607 327.533 633.073 333.8 643.473 341C653.873 347.933 662.54 356.2 669.473 365.8C676.673 375.133 680.273 386.6 680.273 400.2C680.273 415.933 676.807 428.6 669.873 438.2C663.207 447.8 654.673 455.267 644.273 460.6C633.873 465.933 622.407 469.533 609.873 471.4C597.607 473.267 585.873 474.2 574.673 474.2C564.007 474.2 554.273 473.533 545.473 472.2C536.673 470.867 529.073 469.4 522.673 467.8C515.207 465.933 508.407 463.8 502.273 461.4L510.273 429C516.407 431.667 522.94 433.933 529.873 435.8C536.007 437.4 542.807 438.867 550.273 440.2C558.007 441.533 566.14 442.2 574.673 442.2C585.073 442.2 594.54 441.533 603.073 440.2C611.873 438.867 619.473 436.733 625.873 433.8C632.273 430.867 637.207 427 640.673 422.2C644.407 417.4 646.273 411.533 646.273 404.6C646.007 394.2 642.54 385.8 635.873 379.4C629.473 372.733 620.807 366.467 609.873 360.6C599.207 354.467 587.607 348.6 575.073 343C562.807 337.4 551.473 331 541.073 323.8C530.673 316.6 521.873 308.067 514.673 298.2C507.74 288.333 504.273 276.067 504.273 261.4C504.273 252.867 505.74 244.467 508.673 236.2C511.607 227.933 516.54 220.6 523.473 214.2C530.673 207.8 539.873 202.6 551.073 198.6C562.54 194.6 576.673 192.6 593.473 192.6C603.073 192.6 612.14 193.133 620.673 194.2C629.473 195 637.073 195.933 643.473 197C650.94 198.333 658.007 199.8 664.673 201.4L659.073 233.8ZM730.02 196.2H897.22V227H763.62V314.2H887.62V344.2H763.62V438.2H901.22V469H730.02V196.2Z" fill="white"/>
</g>
<defs>
<filter id="filter0_d" x="172.598" y="192.6" width="742.622" height="295.6" filterUnits="userSpaceOnUse" color-interpolation-filters="sRGB">
<feFlood flood-opacity="0" result="BackgroundImageFix"/>
<feColorMatrix in="SourceAlpha" type="matrix" values="0 0 0 0 0 0 0 0 0 0 0 0 0 0 0 0 0 0 127 0"/>
<feOffset dx="10" dy="10"/>
<feGaussianBlur stdDeviation="2"/>
<feColorMatrix type="matrix" values="0 0 0 0 0.768627 0 0 0 0 0.768627 0 0 0 0 0.768627 0 0 0 1 0"/>
<feBlend mode="normal" in2="BackgroundImageFix" result="effect1_dropShadow"/>
<feBlend mode="normal" in="SourceGraphic" in2="effect1_dropShadow" result="shape"/>
</filter>
</defs>
</svg>
