<svg width="499" height="288" viewBox="0 0 499 288" fill="none" xmlns="http://www.w3.org/2000/svg">
<path d="M0.381251 88.4H72.3813V16.4H104.381V88.4H176.381V118H104.381V190H72.3813V118H0.381251V88.4ZM218.909 259.2C254.643 247.2 282.376 232.533 302.109 215.2C322.109 198.133 335.576 180.533 342.509 162.4C337.976 162.933 333.309 163.467 328.509 164C324.243 164.533 319.309 164.933 313.709 165.2C308.376 165.467 302.776 165.6 296.909 165.6C286.509 165.6 276.109 164.133 265.709 161.2C255.309 158.267 245.976 153.6 237.709 147.2C229.709 140.533 223.043 132 217.709 121.6C212.643 111.2 210.109 98.5333 210.109 83.6C210.109 58 217.976 37.8667 233.709 23.2C249.443 8.53332 271.043 1.06666 298.509 0.799995C311.576 0.799995 323.176 3.06666 333.309 7.59999C343.709 11.8667 352.509 18.6667 359.709 28C366.909 37.3333 372.376 49.2 376.109 63.6C380.109 78 382.109 95.2 382.109 115.2C382.109 133.867 379.709 150.8 374.909 166C370.109 180.933 363.576 194.267 355.309 206C347.309 218 337.976 228.4 327.309 237.2C316.909 246 305.976 253.6 294.509 260C283.309 266.667 271.976 272.267 260.509 276.8C249.043 281.333 238.376 285.067 228.509 288L218.909 259.2ZM295.709 28.8C289.309 28.8 282.909 29.8667 276.509 32C270.376 33.8667 264.909 36.9333 260.109 41.2C255.309 45.2 251.443 50.6667 248.509 57.6C245.576 64.5333 244.109 72.9333 244.109 82.8C244.109 100.133 248.909 113.6 258.509 123.2C268.109 132.8 282.509 137.6 301.709 137.6C307.843 137.6 313.576 137.467 318.909 137.2C324.243 136.933 329.043 136.533 333.309 136C338.109 135.467 342.643 134.8 346.909 134C347.176 132.667 347.443 130.933 347.709 128.8C347.976 126.933 348.109 124.667 348.109 122C348.109 119.067 348.109 115.6 348.109 111.6C347.043 56.4 329.576 28.8 295.709 28.8ZM466.388 41.6L413.988 51.6L407.588 24.4L478.788 4.79999H498.388V206H466.388V41.6Z" fill="black"/>
</svg>
