<svg width="900" height="900" viewBox="0 0 900 900" fill="none" xmlns="http://www.w3.org/2000/svg">
<circle cx="450" cy="450" r="450" fill="#4DB5AC"/>
<g filter="url(#filter0_d)">
<path d="M294.601 689.4C366.067 665.4 421.534 636.067 461.001 601.4C501.001 567.267 527.934 532.067 541.801 495.8C532.734 496.867 523.401 497.933 513.801 499C505.267 500.067 495.401 500.867 484.201 501.4C473.534 501.933 462.334 502.2 450.601 502.2C429.801 502.2 409.001 499.267 388.201 493.4C367.401 487.533 348.734 478.2 332.201 465.4C316.201 452.067 302.867 435 292.201 414.2C282.067 393.4 277.001 368.067 277.001 338.2C277.001 287 292.734 246.733 324.201 217.4C355.667 188.067 398.867 173.133 453.801 172.6C479.934 172.6 503.134 177.133 523.401 186.2C544.201 194.733 561.801 208.333 576.201 227C590.601 245.667 601.534 269.4 609.001 298.2C617.001 327 621.001 361.4 621.001 401.4C621.001 438.733 616.201 472.6 606.601 503C597.001 532.867 583.934 559.533 567.401 583C551.401 607 532.734 627.8 511.401 645.4C490.601 663 468.734 678.2 445.801 691C423.401 704.333 400.734 715.533 377.801 724.6C354.867 733.667 333.534 741.133 313.801 747L294.601 689.4ZM448.201 228.6C435.401 228.6 422.601 230.733 409.801 235C397.534 238.733 386.601 244.867 377.001 253.4C367.401 261.4 359.667 272.333 353.801 286.2C347.934 300.067 345.001 316.867 345.001 336.6C345.001 371.267 354.601 398.2 373.801 417.4C393.001 436.6 421.801 446.2 460.201 446.2C472.467 446.2 483.934 445.933 494.601 445.4C505.267 444.867 514.867 444.067 523.401 443C533.001 441.933 542.067 440.6 550.601 439C551.134 436.333 551.667 432.867 552.201 428.6C552.734 424.867 553.001 420.333 553.001 415C553.001 409.133 553.001 402.2 553.001 394.2C550.867 283.8 515.934 228.6 448.201 228.6Z" fill="white"/>
</g>
<defs>
<filter id="filter0_d" x="277" y="172.602" width="358" height="588.4" filterUnits="userSpaceOnUse" color-interpolation-filters="sRGB">
<feFlood flood-opacity="0" result="BackgroundImageFix"/>
<feColorMatrix in="SourceAlpha" type="matrix" values="0 0 0 0 0 0 0 0 0 0 0 0 0 0 0 0 0 0 127 0"/>
<feOffset dx="10" dy="10"/>
<feGaussianBlur stdDeviation="2"/>
<feColorMatrix type="matrix" values="0 0 0 0 0.768627 0 0 0 0 0.768627 0 0 0 0 0.768627 0 0 0 1 0"/>
<feBlend mode="normal" in2="BackgroundImageFix" result="effect1_dropShadow"/>
<feBlend mode="normal" in="SourceGraphic" in2="effect1_dropShadow" result="shape"/>
</filter>
</defs>
</svg>
