<svg width="1117" height="663" viewBox="0 0 1117 663" fill="none" xmlns="http://www.w3.org/2000/svg">
<rect x="23.2266" width="1071.6" height="663" rx="100" fill="#F86969" fill-opacity="0.92"/>
<g filter="url(#filter0_d)">
<path d="M284.667 233.8C278.267 232.2 271.601 230.733 264.667 229.4C258.534 228.067 251.467 227 243.467 226.2C235.734 225.133 227.601 224.6 219.067 224.6C199.334 224.6 185.201 227.667 176.667 233.8C168.134 239.667 163.867 248.867 163.867 261.4C164.134 271.267 167.734 279.667 174.667 286.6C181.601 293.267 190.267 299.533 200.667 305.4C211.067 311 222.401 316.6 234.667 322.2C247.201 327.533 258.667 333.8 269.067 341C279.467 347.933 288.134 356.2 295.067 365.8C302.267 375.133 305.867 386.6 305.867 400.2C305.867 415.933 302.401 428.6 295.467 438.2C288.801 447.8 280.267 455.267 269.867 460.6C259.467 465.933 248.001 469.533 235.467 471.4C223.201 473.267 211.467 474.2 200.267 474.2C189.601 474.2 179.867 473.533 171.067 472.2C162.267 470.867 154.667 469.4 148.267 467.8C140.801 465.933 134.001 463.8 127.867 461.4L135.867 429C142.001 431.667 148.534 433.933 155.467 435.8C161.601 437.4 168.401 438.867 175.867 440.2C183.601 441.533 191.734 442.2 200.267 442.2C210.667 442.2 220.134 441.533 228.667 440.2C237.467 438.867 245.067 436.733 251.467 433.8C257.867 430.867 262.801 427 266.267 422.2C270.001 417.4 271.867 411.533 271.867 404.6C271.601 394.2 268.134 385.8 261.467 379.4C255.067 372.733 246.401 366.467 235.467 360.6C224.801 354.467 213.201 348.6 200.667 343C188.401 337.4 177.067 331 166.667 323.8C156.267 316.6 147.467 308.067 140.267 298.2C133.334 288.333 129.867 276.067 129.867 261.4C129.867 252.867 131.334 244.467 134.267 236.2C137.201 227.933 142.134 220.6 149.067 214.2C156.267 207.8 165.467 202.6 176.667 198.6C188.134 194.6 202.267 192.6 219.067 192.6C228.667 192.6 237.734 193.133 246.267 194.2C255.067 195 262.667 195.933 269.067 197C276.534 198.333 283.601 199.8 290.267 201.4L284.667 233.8ZM390.155 207.8V267.8H448.155V293.8H390.155V400.6C390.155 409.4 390.288 416.733 390.555 422.6C391.088 428.467 392.021 433.133 393.355 436.6C394.688 440.067 396.555 442.6 398.955 444.2C401.355 445.533 404.421 446.2 408.155 446.2C418.288 445.933 430.021 442.2 443.355 435L452.955 459.4C444.155 465.267 435.888 469.133 428.155 471C420.688 473.133 413.221 474.2 405.755 474.2C388.155 474.2 375.755 469.267 368.555 459.4C361.621 449.267 358.155 432.6 358.155 409.4V293.8H321.355V267.8H358.155V211.8L390.155 207.8ZM601.058 376.6C595.724 376.867 590.658 377.133 585.858 377.4C581.058 377.667 576.258 378.067 571.458 378.6C566.924 378.867 562.791 379.267 559.058 379.8C539.858 382.2 526.258 386.467 518.258 392.6C510.258 398.467 506.258 407 506.258 418.2C506.258 427.533 509.058 434.6 514.658 439.4C520.524 443.933 528.124 446.2 537.458 446.2C550.258 446.2 561.591 444.067 571.458 439.8C581.591 435.267 591.458 429.4 601.058 422.2V376.6ZM600.658 450.2C588.124 457.4 576.391 463.267 565.458 467.8C554.791 472.067 543.191 474.2 530.658 474.2C512.791 474.2 498.524 469.933 487.858 461.4C477.458 452.6 472.258 438.2 472.258 418.2C472.258 407.8 474.924 398.733 480.258 391C485.591 383.267 492.524 376.867 501.058 371.8C509.858 366.467 519.724 362.333 530.658 359.4C541.591 356.467 552.791 354.6 564.258 353.8C569.058 353.267 575.324 352.867 583.058 352.6C590.791 352.067 596.791 351.667 601.058 351.4C601.058 342.067 600.791 333.8 600.258 326.6C599.724 319.133 598.124 312.867 595.458 307.8C592.791 302.467 588.791 298.467 583.458 295.8C578.391 293.133 571.058 291.8 561.458 291.8C553.724 291.8 546.258 292.333 539.058 293.4C531.858 294.2 525.458 295.133 519.858 296.2C513.191 297.533 507.058 299 501.458 300.6L495.058 273C501.724 271.4 508.924 269.933 516.658 268.6C523.324 267.267 531.058 266.2 539.858 265.4C548.658 264.333 558.124 263.8 568.258 263.8C581.858 263.8 592.791 265.8 601.058 269.8C609.591 273.8 616.124 279.267 620.658 286.2C625.458 292.867 628.658 300.6 630.258 309.4C632.124 317.933 633.058 327 633.058 336.6V432.6C633.058 436.333 633.058 440.333 633.058 444.6C633.324 448.6 633.591 452.6 633.858 456.6C634.391 460.6 634.924 464.733 635.458 469L604.658 472.2L600.658 450.2ZM736.248 207.8V267.8H794.248V293.8H736.248V400.6C736.248 409.4 736.382 416.733 736.648 422.6C737.182 428.467 738.115 433.133 739.448 436.6C740.782 440.067 742.648 442.6 745.048 444.2C747.448 445.533 750.515 446.2 754.248 446.2C764.382 445.933 776.115 442.2 789.448 435L799.048 459.4C790.248 465.267 781.982 469.133 774.248 471C766.782 473.133 759.315 474.2 751.848 474.2C734.248 474.2 721.848 469.267 714.648 459.4C707.715 449.267 704.248 432.6 704.248 409.4V293.8H667.448V267.8H704.248V211.8L736.248 207.8ZM982.389 464.2C976.256 466.067 969.856 467.667 963.189 469C956.789 470.333 949.589 471.533 941.589 472.6C933.856 473.667 925.722 474.2 917.189 474.2C903.856 474.2 891.456 472.333 879.989 468.6C868.522 464.867 858.522 458.867 849.989 450.6C841.456 442.333 834.656 431.667 829.589 418.6C824.789 405.267 822.389 389 822.389 369.8C822.389 352.467 824.789 337.267 829.589 324.2C834.389 310.867 840.922 299.8 849.189 291C857.722 281.933 867.589 275.133 878.789 270.6C890.256 266.067 902.656 263.8 915.989 263.8C929.056 263.8 940.389 266.333 949.989 271.4C959.589 276.467 967.456 283.4 973.589 292.2C979.989 300.733 984.656 310.867 987.589 322.6C990.789 334.067 992.389 346.2 992.389 359L986.389 376.6H857.189C857.189 384.867 858.256 393.133 860.389 401.4C862.522 409.667 866.122 417.133 871.189 423.8C876.522 430.467 883.322 435.933 891.589 440.2C900.122 444.2 910.656 446.2 923.189 446.2C931.189 446.2 938.522 445.8 945.189 445C951.856 443.933 957.589 442.867 962.389 441.8C967.456 440.467 972.122 439 976.389 437.4L982.389 464.2ZM959.189 351C959.189 349.133 958.789 345 957.989 338.6C957.189 332.2 955.322 325.533 952.389 318.6C949.456 311.667 944.922 305.533 938.789 300.2C932.656 294.6 924.522 291.8 914.389 291.8C903.189 291.8 893.989 294.2 886.789 299C879.589 303.533 873.856 309 869.589 315.4C865.322 321.8 862.389 328.333 860.789 335C859.189 341.667 858.389 347 858.389 351H959.189Z" fill="white"/>
</g>
<defs>
<filter id="filter0_d" x="127.867" y="192.6" width="878.522" height="295.6" filterUnits="userSpaceOnUse" color-interpolation-filters="sRGB">
<feFlood flood-opacity="0" result="BackgroundImageFix"/>
<feColorMatrix in="SourceAlpha" type="matrix" values="0 0 0 0 0 0 0 0 0 0 0 0 0 0 0 0 0 0 127 0"/>
<feOffset dx="10" dy="10"/>
<feGaussianBlur stdDeviation="2"/>
<feColorMatrix type="matrix" values="0 0 0 0 0.768627 0 0 0 0 0.768627 0 0 0 0 0.768627 0 0 0 1 0"/>
<feBlend mode="normal" in2="BackgroundImageFix" result="effect1_dropShadow"/>
<feBlend mode="normal" in="SourceGraphic" in2="effect1_dropShadow" result="shape"/>
</filter>
</defs>
</svg>
