<svg width="900" height="900" viewBox="0 0 900 900" fill="none" xmlns="http://www.w3.org/2000/svg">
<circle cx="450" cy="450" r="450" fill="#4DB5AC"/>
<g filter="url(#filter0_d)">
<path d="M244.963 325.2L140.163 345.2L127.363 290.8L269.763 251.6H308.963V654H244.963V325.2ZM429.825 454C429.825 473.2 432.758 491.867 438.625 510C444.492 527.6 453.292 543.067 465.025 556.4C476.758 569.733 490.892 580.4 507.425 588.4C523.958 596.4 543.158 600.4 565.025 600.4C586.358 600.4 605.292 596.4 621.825 588.4C638.358 580.4 652.225 569.733 663.425 556.4C675.158 543.067 683.958 527.6 689.825 510C695.692 491.867 698.625 473.2 698.625 454C698.625 434.267 695.692 415.6 689.825 398C683.958 379.867 675.158 364.133 663.425 350.8C652.225 337.467 638.358 327.067 621.825 319.6C605.292 311.6 586.358 307.6 565.025 307.6C543.158 307.6 523.958 311.6 507.425 319.6C490.892 327.067 476.758 337.467 465.025 350.8C453.292 364.133 444.492 379.867 438.625 398C432.758 415.6 429.825 434.267 429.825 454ZM361.825 454C361.825 424.667 366.892 397.2 377.025 371.6C387.158 346 401.292 323.867 419.425 305.2C437.558 286 458.892 271.067 483.425 260.4C508.492 249.2 535.692 243.6 565.025 243.6C593.825 243.6 620.492 249.2 645.025 260.4C670.092 271.067 691.425 286 709.025 305.2C727.158 323.867 741.292 346 751.425 371.6C761.558 397.2 766.625 424.667 766.625 454C766.625 482.8 761.558 510 751.425 535.6C741.292 561.2 727.158 583.6 709.025 602.8C691.425 622 670.092 637.2 645.025 648.4C620.492 659.067 593.825 664.4 565.025 664.4C535.692 664.4 508.492 659.067 483.425 648.4C458.892 637.2 437.558 622 419.425 602.8C401.292 583.6 387.158 561.2 377.025 535.6C366.892 510 361.825 482.8 361.825 454Z" fill="white"/>
</g>
<defs>
<filter id="filter0_d" x="127.363" y="243.602" width="653.263" height="434.8" filterUnits="userSpaceOnUse" color-interpolation-filters="sRGB">
<feFlood flood-opacity="0" result="BackgroundImageFix"/>
<feColorMatrix in="SourceAlpha" type="matrix" values="0 0 0 0 0 0 0 0 0 0 0 0 0 0 0 0 0 0 127 0"/>
<feOffset dx="10" dy="10"/>
<feGaussianBlur stdDeviation="2"/>
<feColorMatrix type="matrix" values="0 0 0 0 0.768627 0 0 0 0 0.768627 0 0 0 0 0.768627 0 0 0 1 0"/>
<feBlend mode="normal" in2="BackgroundImageFix" result="effect1_dropShadow"/>
<feBlend mode="normal" in="SourceGraphic" in2="effect1_dropShadow" result="shape"/>
</filter>
</defs>
</svg>
