<svg width="900" height="900" viewBox="0 0 900 900" fill="none" xmlns="http://www.w3.org/2000/svg">
<circle cx="450" cy="450" r="450" fill="#4DB5AC"/>
<g filter="url(#filter0_d)">
<path d="M271.838 325.2L167.038 345.2L154.238 290.8L296.638 251.6H335.838V654H271.838V325.2ZM383.9 623.6C427.633 588.933 466.833 555.067 501.5 522C516.433 508.133 530.833 493.733 544.7 478.8C559.1 463.867 571.9 449.2 583.1 434.8C594.3 420.4 603.1 406.8 609.5 394C616.433 380.667 619.9 368.667 619.9 358C619.9 340.933 614.3 327.067 603.1 316.4C592.433 305.2 571.1 299.6 539.1 299.6C522.567 299.6 506.567 300.933 491.1 303.6C475.633 306.267 461.767 308.933 449.5 311.6C435.1 315.333 421.233 319.333 407.9 323.6L388.7 272.4C402.567 267.067 418.3 262.267 435.9 258C450.3 254.267 467.1 251.067 486.3 248.4C506.033 245.2 526.833 243.6 548.7 243.6C566.3 243.6 583.367 245.467 599.9 249.2C616.967 252.4 631.9 258.267 644.7 266.8C658.033 274.8 668.433 285.733 675.9 299.6C683.9 313.467 687.9 331.067 687.9 352.4C687.9 364.667 685.233 377.733 679.9 391.6C674.567 404.933 667.633 418.533 659.1 432.4C651.1 445.733 641.5 459.333 630.3 473.2C619.633 486.533 608.7 499.333 597.5 511.6C571.367 540.4 541.5 568.933 507.9 597.2C520.7 596.667 534.033 596.133 547.9 595.6C560.167 595.067 574.033 594.8 589.5 594.8C605.5 594.267 622.033 594 639.1 594H699.9V654H383.9V623.6Z" fill="white"/>
</g>
<defs>
<filter id="filter0_d" x="154.238" y="243.602" width="559.663" height="424.4" filterUnits="userSpaceOnUse" color-interpolation-filters="sRGB">
<feFlood flood-opacity="0" result="BackgroundImageFix"/>
<feColorMatrix in="SourceAlpha" type="matrix" values="0 0 0 0 0 0 0 0 0 0 0 0 0 0 0 0 0 0 127 0"/>
<feOffset dx="10" dy="10"/>
<feGaussianBlur stdDeviation="2"/>
<feColorMatrix type="matrix" values="0 0 0 0 0.768627 0 0 0 0 0.768627 0 0 0 0 0.768627 0 0 0 1 0"/>
<feBlend mode="normal" in2="BackgroundImageFix" result="effect1_dropShadow"/>
<feBlend mode="normal" in="SourceGraphic" in2="effect1_dropShadow" result="shape"/>
</filter>
</defs>
</svg>
